<svg width="24" height="24" viewBox="0 0 24 24" fill="none" xmlns="http://www.w3.org/2000/svg">
<path d="M15.0004 20.67C14.8104 20.67 14.6204 20.6 14.4704 20.45L7.95036 13.93C7.44106 13.4168 7.15527 12.7231 7.15527 12C7.15527 11.277 7.44106 10.5832 7.95036 10.07L14.4704 3.55002C14.7604 3.26002 15.2404 3.26002 15.5304 3.55002C15.8204 3.84002 15.8204 4.32002 15.5304 4.61002L9.01036 11.13C8.53036 11.61 8.53036 12.39 9.01036 12.87L15.5304 19.39C15.8204 19.68 15.8204 20.16 15.5304 20.45C15.3804 20.59 15.1904 20.67 15.0004 20.67Z" fill="#C6C6C6"/>
</svg>
