<svg width="24" height="24" viewBox="0 0 24 24" fill="none" xmlns="http://www.w3.org/2000/svg">
<path d="M8.90981 20.67C8.71981 20.67 8.52981 20.6 8.37981 20.45C8.24033 20.3089 8.16211 20.1185 8.16211 19.92C8.16211 19.7216 8.24033 19.5312 8.37981 19.39L14.8998 12.87C15.3798 12.39 15.3798 11.61 14.8998 11.13L8.37981 4.61002C8.24033 4.46888 8.16211 4.27845 8.16211 4.08002C8.16211 3.88159 8.24033 3.69116 8.37981 3.55002C8.66981 3.26002 9.14981 3.26002 9.43981 3.55002L15.9598 10.07C16.4698 10.58 16.7598 11.27 16.7598 12C16.7598 12.73 16.4798 13.42 15.9598 13.93L9.43981 20.45C9.28981 20.59 9.09981 20.67 8.90981 20.67Z" fill="#C6C6C6"/>
</svg>
